# xmcd CD database file
#
# Track frame offsets:
#	150
#	18946
#	41145
#	60709
#	75191
#	90295
#	109516
#	135345
#	155409
#	167618
#	185175
#	207461
#	224579
#	236899
#	249358
#	261547
#
# Disc length: 3643 seconds
#
# Revision: 0
# Processed by: cddbd v1.5.2PL0 Copyright (c) Steve Scherf et al.
# Submitted via: CDex 1.51
#
DISCID=d90e3910
DTITLE=Otis Spann - The Hard Way  CD 2
DYEAR=1960
DGENRE=Blues
TTITLE0=Come Day, Go Day
TTITLE1=Walking The Blues
TTITLE2=Bad Condition
TTITLE3=My Home Is In The Delta
TTITLE4=Instrumental Boogie
TTITLE5=Cow Cow Blues
TTITLE6=Talkin' The Blues
TTITLE7=Baby Child
TTITLE8=One Doggone Reason
TTITLE9=Strange Woman Blues
TTITLE10=It Hurts Me Too
TTITLE11=The Girl I Love
TTITLE12=It Must Have Been The Devil
TTITLE13=Five Spot
TTITLE14=I`m Leaving You
TTITLE15=I`m In Love With You Baby
EXTD=YEAR: 1960
EXTT0=
EXTT1=
EXTT2=
EXTT3=
EXTT4=
EXTT5=
EXTT6=
EXTT7=
EXTT8=
EXTT9=
EXTT10=
EXTT11=
EXTT12=
EXTT13=
EXTT14=
EXTT15=
PLAYORDER=
